# xmcd
#
# Track frame offsets: 
#        150
#        18597
#        36924
#        59840
#        76883
#        94408
#        119728
#        162355
#
# Disc length: 2493 seconds
#
# Revision: 2
# Processed by: cddbd v1.5.2PL0 Copyright (c) Steve Scherf et al.
# Submitted via: ExactAudioCopyFreeDBPlugin 1.0
#
DISCID=6f09bb08
DTITLE=Nico - The End...  [2012 expanded remaster]  CD1
DYEAR=1974
DGENRE=Rock
TTITLE0=It Has Not Taken Long
TTITLE1=Secret Side
TTITLE2=You Forget to Answer
TTITLE3=Innocent and Vain
TTITLE4=Valley of the Kings
TTITLE5=We've Got the Gold
TTITLE6=The End
TTITLE7=Das Lied der Deutschen
EXTD=
EXTT0=
EXTT1=
EXTT2=
EXTT3=
EXTT4=
EXTT5=
EXTT6=
EXTT7=
PLAYORDER=
